<?xml version="1.0" encoding="UTF-8"?>
<!DOCTYPE svg PUBLIC "-//W3C//DTD SVG 1.1//EN" "http://www.w3.org/Graphics/SVG/1.1/DTD/svg11.dtd">
<!-- Creator: CorelDRAW X6 -->
<svg xmlns="http://www.w3.org/2000/svg" xml:space="preserve" width="100%" height="100%" version="1.1" shape-rendering="geometricPrecision" text-rendering="geometricPrecision" image-rendering="optimizeQuality" fill-rule="evenodd" clip-rule="evenodd"
viewBox="0 0 500 500"
 xmlns:xlink="http://www.w3.org/1999/xlink">
 <defs>
   <radialGradient id="id0" gradientUnits="userSpaceOnUse" cx="250.001" cy="242.178" r="232.433" fx="250.001" fy="242.178">
    <stop offset="0" stop-color="#00AAFF"/>
    <stop offset="1" stop-color="#008BFF"/>
   </radialGradient>
 </defs>
 <g id="Layer_x0020_1">
  <metadata id="CorelCorpID_0Corel-Layer"/>
  <path fill="url(#id0)" stroke="#434242" stroke-width="10" d="M222 397l-79 35c-14,6 -16,4 -14,-11 2,-29 5,-57 8,-86 3,-23 -1,-36 -17,-53 -19,-21 -38,-43 -57,-64 -11,-12 -10,-14 5,-17 28,-7 56,-13 85,-19 23,-4 33,-12 44,-32 15,-25 29,-50 44,-75 8,-13 10,-13 18,0 15,25 29,50 44,75 11,20 21,28 44,32 29,6 57,12 85,19 15,3 16,5 5,17 -19,21 -38,43 -57,64 -16,17 -20,30 -17,53 3,29 6,57 8,86 2,15 0,17 -14,11l-79 -35c-21,-10 -35,-10 -56,0z"/>
  <path fill="#FFFFFF" stroke="#434242" stroke-width="10" d="M231 349l-53 24c-10,4 -11,3 -10,-8 2,-19 4,-38 6,-58 2,-15 -1,-24 -12,-35 -13,-15 -26,-29 -39,-44 -7,-8 -6,-9 4,-11 19,-5 38,-9 57,-13 16,-3 23,-8 30,-22 10,-17 20,-33 30,-50 5,-9 7,-9 12,0 10,17 20,33 30,50 7,14 14,19 30,22 19,4 38,8 57,13 10,2 11,3 4,11 -13,15 -26,29 -39,44 -11,11 -14,20 -12,35 2,20 4,39 6,58 1,11 0,12 -10,8l-53 -24c-15,-7 -23,-7 -38,0z"/>
 </g>
</svg>
